# Blender v2.72 (sub 0) OBJ File: 'fydp_lighting.blend'
# www.blender.org
mtllib grass.mtl
o Cube.025
v 0.098904 -0.008053 -0.058651
v 0.065635 -0.008053 -0.006000
v 0.040754 -0.008053 -0.021721
v 0.074022 -0.008053 -0.074373
v 0.083762 0.112712 -0.077124
v 0.067392 0.126618 -0.051216
v 0.080837 0.126618 -0.042721
v 0.097207 0.112712 -0.068629
v 0.119243 0.272085 -0.118391
v 0.029523 -0.004786 -0.001548
v 0.004641 -0.004786 0.055547
v -0.022341 -0.004786 0.043788
v 0.002542 -0.004786 -0.013307
v 0.011751 0.115978 -0.017506
v -0.000493 0.129884 0.010588
v 0.014086 0.129884 0.016942
v 0.026330 0.115978 -0.011152
v 0.040551 0.249220 -0.063684
v 0.040551 0.275352 -0.063684
v 0.039834 -0.004375 0.074798
v 0.002365 -0.004375 0.124548
v -0.021145 -0.004375 0.106842
v 0.016323 -0.004375 0.057091
v 0.026256 0.139237 0.055147
v 0.007819 0.155774 0.079627
v 0.020523 0.155774 0.089195
v 0.038960 0.139237 0.064714
v 0.064997 0.328762 0.016925
v -0.116413 -0.003553 0.028024
v -0.041546 -0.003553 -0.014395
v -0.021499 -0.003553 0.020985
v -0.096367 -0.003553 0.063404
v -0.110025 0.161528 0.060401
v -0.073185 0.184376 0.039528
v -0.084017 0.184376 0.020410
v -0.120857 0.161528 0.041283
v -0.157934 0.328927 0.087512
v -0.020018 -0.003316 -0.060193
v -0.007698 -0.003316 -0.019049
v -0.027141 -0.003316 -0.013227
v -0.039461 -0.003316 -0.054371
v -0.036482 0.095718 -0.060683
v -0.030420 0.107122 -0.040437
v -0.019913 0.107122 -0.043583
v -0.025975 0.095718 -0.063829
v -0.041878 0.226415 -0.097823
v 0.098904 -0.142651 -0.058651
v 0.065635 -0.142651 -0.006000
v 0.040754 -0.142651 -0.021721
v 0.074022 -0.142651 -0.074373
v 0.029523 -0.139384 -0.001548
v 0.004641 -0.139384 0.055547
v -0.022341 -0.139384 0.043788
v 0.002542 -0.139384 -0.013307
v 0.039834 -0.138973 0.074798
v 0.002365 -0.138973 0.124548
v -0.021145 -0.138973 0.106842
v 0.016323 -0.138973 0.057091
v -0.116413 -0.138151 0.028024
v -0.041546 -0.138151 -0.014395
v -0.021499 -0.138151 0.020985
v -0.096367 -0.138151 0.063404
v -0.020018 -0.137914 -0.060193
v -0.007698 -0.137914 -0.019049
v -0.027141 -0.137914 -0.013227
v -0.039461 -0.137914 -0.054371
vn 0.798800 0.000000 0.601600
vn -0.533100 0.062200 0.843700
vn 0.830700 -0.054400 0.554100
vn 0.512900 -0.279200 -0.811800
vn -0.844300 -0.050200 -0.533500
vn -0.958000 0.000000 0.286800
vn -0.398700 0.062200 0.914900
vn 0.905200 -0.054400 0.421400
vn 0.383600 -0.279200 -0.880300
vn -0.915600 -0.050200 -0.399000
vn -0.493000 0.000000 -0.870000
vn -0.600800 0.052400 0.797700
vn 0.782900 -0.045700 0.620500
vn 0.584400 -0.237500 -0.775900
vn -0.798100 -0.042200 -0.601100
vn -0.845400 0.000000 -0.534200
vn 0.868300 0.062900 -0.492000
vn -0.466400 -0.054600 -0.882900
vn -0.836100 -0.276700 0.473700
vn 0.492400 -0.049700 0.869000
vn -0.286800 0.000000 -0.958000
vn 0.286400 0.052400 0.956700
vn 0.963800 -0.045700 -0.262800
vn -0.278600 -0.237500 -0.930600
vn -0.957100 -0.042200 0.286600
vn -0.854900 -0.043200 -0.517000
vn 0.461900 -0.502200 -0.731000
vn 0.834000 -0.043200 0.550100
vn -0.506100 0.320000 0.800900
vn -0.923500 -0.043200 -0.381100
vn 0.345500 -0.502200 -0.792700
vn 0.848500 0.000000 0.529200
vn -0.378500 0.320000 0.868500
vn -0.809900 -0.036300 -0.585400
vn 0.540600 -0.438800 -0.717800
vn 0.786300 -0.036300 0.616800
vn -0.578700 0.273300 0.768400
vn 0.540900 -0.110400 0.833800
vn -0.721600 -0.558800 0.408800
vn -0.492900 -0.000200 -0.870100
vn 0.826500 0.312400 -0.468300
vn -0.951500 -0.036300 0.305400
vn -0.257700 -0.438800 -0.860800
vn 0.962800 -0.036300 -0.267800
vn 0.275900 0.273300 0.921500
vn 0.000000 1.000000 0.000000
vn -0.870000 0.000000 0.493000
vn -0.399500 0.000000 0.916700
vn 0.601600 0.000000 -0.798800
vn 0.493000 0.000000 0.870000
vn -0.534200 0.000000 0.845400
vn -0.798800 0.000000 -0.601600
vn 0.286800 0.000000 0.958000
vn 0.870000 0.000000 -0.493000
vn -0.601600 0.000000 0.798800
vn 0.916700 0.000000 0.399500
vn 0.845400 0.000000 0.534200
vn 0.399500 0.000000 -0.916700
vn 0.958000 0.000000 -0.286800
vn 0.534200 0.000000 -0.845400
vn -0.916700 0.000000 -0.399500
vn 0.844300 -0.050200 0.533500
vn -0.857100 -0.054400 -0.512300
vn 0.915600 -0.050200 0.399000
vn -0.924900 -0.054400 -0.376200
vn 0.798100 -0.042200 0.601100
vn -0.812600 -0.045700 -0.581100
vn -0.492400 -0.049700 -0.869000
vn 0.517700 -0.054600 0.853800
vn 0.957100 -0.042200 -0.286600
vn -0.949600 -0.045700 0.310100
vn 0.907900 -0.043200 0.417000
vn -0.848500 0.000000 -0.529200
usemtl Material.001
s off
f 22//1 57//1 58//1
f 1//2 8//2 5//2
f 4//3 5//3 6//3
f 3//4 6//4 7//4
f 1//5 2//5 7//5
f 38//6 63//6 64//6
f 10//7 17//7 14//7
f 13//8 14//8 15//8
f 11//9 12//9 15//9
f 10//10 11//10 16//10
f 31//11 61//11 62//11
f 20//12 27//12 24//12
f 23//13 24//13 25//13
f 22//14 25//14 26//14
f 20//15 21//15 26//15
f 1//16 47//16 48//16
f 29//17 36//17 33//17
f 32//18 33//18 34//18
f 31//19 34//19 35//19
f 29//20 30//20 35//20
f 39//21 64//21 65//21
f 41//22 38//22 45//22
f 41//23 42//23 43//23
f 40//24 43//24 44//24
f 38//25 39//25 44//25
f 8//26 7//26 9//26
f 7//27 6//27 9//27
f 6//28 5//28 9//28
f 5//29 8//29 9//29
f 17//30 16//30 19//30
f 16//31 15//31 19//31
f 14//32 18//32 19//32
f 14//33 17//33 19//33
f 27//34 26//34 28//34
f 26//35 25//35 28//35
f 25//36 24//36 28//36
f 24//37 27//37 28//37
f 36//38 35//38 37//38
f 35//39 34//39 37//39
f 34//40 33//40 37//40
f 33//41 36//41 37//41
f 45//42 44//42 46//42
f 44//43 43//43 46//43
f 43//44 42//44 46//44
f 42//45 45//45 46//45
f 50//46 49//46 48//46
f 51//46 54//46 53//46
f 55//46 58//46 57//46
f 62//46 61//46 60//46
f 66//46 65//46 64//46
f 30//47 60//47 61//47
f 13//48 54//48 51//48
f 21//49 56//49 57//49
f 29//50 59//50 60//50
f 4//51 50//51 47//51
f 20//52 55//52 56//52
f 41//53 66//53 63//53
f 32//54 62//54 59//54
f 23//55 58//55 55//55
f 12//56 53//56 54//56
f 3//57 49//57 50//57
f 11//58 52//58 53//58
f 40//59 65//59 66//59
f 2//60 48//60 49//60
f 10//61 51//61 52//61
f 23//1 22//1 58//1
f 4//2 1//2 5//2
f 3//62 4//62 6//62
f 2//4 3//4 7//4
f 8//63 1//63 7//63
f 39//6 38//6 64//6
f 13//7 10//7 14//7
f 12//64 13//64 15//64
f 16//9 11//9 15//9
f 17//65 10//65 16//65
f 32//11 31//11 62//11
f 23//12 20//12 24//12
f 22//66 23//66 25//66
f 21//14 22//14 26//14
f 27//67 20//67 26//67
f 2//16 1//16 48//16
f 32//17 29//17 33//17
f 31//68 32//68 34//68
f 30//19 31//19 35//19
f 36//69 29//69 35//69
f 40//21 39//21 65//21
f 42//22 41//22 45//22
f 40//70 41//70 43//70
f 39//24 40//24 44//24
f 45//71 38//71 44//71
f 15//72 14//72 19//72
f 18//73 14//73 19//73
f 47//46 50//46 48//46
f 52//46 51//46 53//46
f 56//46 55//46 57//46
f 59//46 62//46 60//46
f 63//46 66//46 64//46
f 31//47 30//47 61//47
f 10//48 13//48 51//48
f 22//49 21//49 57//49
f 30//50 29//50 60//50
f 1//51 4//51 47//51
f 21//52 20//52 56//52
f 38//53 41//53 63//53
f 29//54 32//54 59//54
f 20//55 23//55 55//55
f 13//56 12//56 54//56
f 4//57 3//57 50//57
f 12//58 11//58 53//58
f 41//59 40//59 66//59
f 3//60 2//60 49//60
f 11//61 10//61 52//61
