# Blender v2.72 (sub 0) OBJ File: 'fydp_lighting.blend'
# www.blender.org
mtllib left_hand.mtl
o Cube.020_Cube.021
v 0.017361 -0.005962 -0.014960
v -0.020481 -0.008594 -0.010017
v 0.058993 -0.023707 -0.093111
v -0.033716 0.013863 -0.024525
v -0.037061 0.013863 -0.078289
v 0.032317 0.018620 -0.081370
v 0.030714 0.018304 -0.032753
v 0.052615 -0.017777 -0.106119
v 0.023610 -0.017669 -0.147460
v -0.026349 0.002157 -0.130890
v 0.023610 0.002157 -0.147460
v -0.026349 -0.017669 -0.130890
v 0.030714 -0.001521 -0.032753
v 0.052615 0.002049 -0.106119
v 0.058993 -0.003882 -0.093111
v 0.032317 -0.001205 -0.081370
v -0.037061 -0.005962 -0.078289
v -0.020481 0.011231 -0.010017
v 0.017361 0.013863 -0.014960
v -0.033716 -0.005962 -0.024525
vn -0.314800 0.000000 -0.949200
vn 0.905500 0.000000 0.424300
vn 0.799800 0.000000 0.600200
vn -0.979900 0.000000 -0.199600
vn 0.991400 0.000000 -0.130600
vn -0.068200 0.997700 0.004200
vn -0.651300 -0.758300 -0.026400
vn 0.129500 0.000000 0.991600
vn -0.076800 0.969800 -0.231500
vn 0.897900 0.000000 -0.440200
vn 0.076800 -0.969800 0.231500
vn 0.040000 -0.976100 -0.213600
vn 0.651300 0.758300 0.026400
vn -0.773200 0.000000 -0.634200
vn 0.068200 -0.997700 -0.004200
vn -0.040000 0.976100 0.213600
vn -0.738800 0.000000 0.674000
vn -0.998100 0.000000 0.062100
usemtl Material.008
s off
f 9//1 12//1 10//1
f 7//2 13//2 3//2
f 1//3 13//3 7//3
f 12//4 17//4 5//4
f 6//5 16//5 9//5
f 6//6 5//6 4//6
f 8//7 3//7 13//7
f 2//8 1//8 19//8
f 5//9 6//9 11//9
f 3//10 8//10 14//10
f 17//11 12//11 9//11
f 13//12 1//12 2//12
f 7//13 15//13 14//13
f 8//14 16//14 6//14
f 20//15 17//15 16//15
f 7//16 4//16 18//16
f 4//17 20//17 2//17
f 17//18 20//18 4//18
f 11//1 9//1 10//1
f 15//2 7//2 3//2
f 19//3 1//3 7//3
f 10//4 12//4 5//4
f 11//5 6//5 9//5
f 7//6 6//6 4//6
f 16//7 8//7 13//7
f 18//8 2//8 19//8
f 10//9 5//9 11//9
f 15//10 3//10 14//10
f 16//11 17//11 9//11
f 20//12 13//12 2//12
f 6//13 7//13 14//13
f 14//14 8//14 6//14
f 13//15 20//15 16//15
f 19//16 7//16 18//16
f 18//17 4//17 2//17
f 5//18 17//18 4//18
