# Blender v2.72 (sub 0) OBJ File: 'fydp_lighting.blend'
# www.blender.org
mtllib pillar.mtl
o Circle.015
v 0.000000 0.000000 -1.500000
v -0.292636 0.000000 -1.471178
v -0.574025 0.000000 -1.385819
v -0.833355 0.000000 -1.247204
v -1.060660 0.000000 -1.060660
v -1.247205 0.000000 -0.833355
v -1.385819 0.000000 -0.574025
v -1.471178 0.000000 -0.292636
v -1.500000 0.000000 -0.000000
v -1.471178 0.000000 0.292635
v -1.385819 0.000000 0.574025
v -1.247205 0.000000 0.833355
v -1.060660 0.000000 1.060660
v -0.833355 0.000000 1.247205
v -0.574025 0.000000 1.385819
v -0.292635 0.000000 1.471178
v 0.000000 0.000000 1.500000
v 0.292636 0.000000 1.471178
v 0.574026 0.000000 1.385819
v 0.833356 0.000000 1.247204
v 1.060661 0.000000 1.060660
v 1.247205 0.000000 0.833354
v 1.385820 0.000000 0.574024
v 1.471178 0.000000 0.292634
v 1.500000 0.000000 -0.000001
v 1.471178 0.000000 -0.292637
v 1.385819 0.000000 -0.574027
v 1.247203 0.000000 -0.833357
v 1.060659 0.000000 -1.060662
v 0.833354 0.000000 -1.247205
v 0.574023 0.000000 -1.385820
v 0.292633 0.000000 -1.471178
v 0.000000 -10.000000 -1.500000
v -0.292636 -10.000000 -1.471178
v -0.574025 -10.000000 -1.385819
v -0.833355 -10.000000 -1.247204
v -1.060660 -10.000000 -1.060660
v -1.247205 -10.000000 -0.833355
v -1.385819 -10.000000 -0.574025
v -1.471178 -10.000000 -0.292636
v -1.500000 -10.000000 -0.000000
v -1.471178 -10.000000 0.292635
v -1.385819 -10.000000 0.574025
v -1.247205 -10.000000 0.833355
v -1.060660 -10.000000 1.060660
v -0.833355 -10.000000 1.247205
v -0.574025 -10.000000 1.385819
v -0.292635 -10.000000 1.471178
v 0.000000 -10.000000 1.500000
v 0.292636 -10.000000 1.471178
v 0.574026 -10.000000 1.385819
v 0.833356 -10.000000 1.247204
v 1.060661 -10.000000 1.060660
v 1.247205 -10.000000 0.833354
v 1.385820 -10.000000 0.574024
v 1.471178 -10.000000 0.292634
v 1.500000 -10.000000 -0.000001
v 1.471178 -10.000000 -0.292637
v 1.385819 -10.000000 -0.574027
v 1.247203 -10.000000 -0.833357
v 1.060659 -10.000000 -1.060662
v 0.833354 -10.000000 -1.247205
v 0.574023 -10.000000 -1.385820
v 0.292633 -10.000000 -1.471178
v -0.000000 0.000000 -1.400154
v -0.273156 0.000000 -1.373250
v -0.535816 0.000000 -1.293573
v -0.777884 0.000000 -1.164185
v -0.990058 0.000000 -0.990058
v -1.164185 0.000000 -0.777884
v -1.293573 0.000000 -0.535816
v -1.373250 0.000000 -0.273156
v -1.400154 0.000000 -0.000000
v -1.373250 0.000000 0.273156
v -1.293573 0.000000 0.535815
v -1.164185 0.000000 0.777884
v -0.990058 0.000000 0.990058
v -0.777884 0.000000 1.164185
v -0.535815 0.000000 1.293573
v -0.273156 0.000000 1.373250
v 0.000000 0.000000 1.400154
v 0.273157 0.000000 1.373250
v 0.535816 0.000000 1.293573
v 0.777884 0.000000 1.164185
v 0.990059 0.000000 0.990058
v 1.164186 0.000000 0.777883
v 1.293574 0.000000 0.535815
v 1.373250 0.000000 0.273155
v 1.400154 0.000000 -0.000001
v 1.373250 0.000000 -0.273158
v 1.293573 0.000000 -0.535817
v 1.164184 0.000000 -0.777885
v 0.990057 0.000000 -0.990059
v 0.777882 0.000000 -1.164186
v 0.535814 0.000000 -1.293574
v 0.273154 0.000000 -1.373250
v -0.000000 -0.077263 -1.400154
v -0.273156 -0.077263 -1.373250
v -0.535816 -0.077263 -1.293573
v -0.777884 -0.077263 -1.164185
v -0.990058 -0.077263 -0.990058
v -1.164185 -0.077263 -0.777884
v -1.293573 -0.077263 -0.535816
v -1.373250 -0.077263 -0.273156
v -1.400154 -0.077263 -0.000000
v -1.373250 -0.077263 0.273156
v -1.293573 -0.077263 0.535815
v -1.164185 -0.077263 0.777884
v -0.990058 -0.077263 0.990058
v -0.777884 -0.077263 1.164185
v -0.535815 -0.077263 1.293573
v -0.273156 -0.077263 1.373250
v 0.000000 -0.077263 1.400154
v 0.273157 -0.077263 1.373250
v 0.535816 -0.077263 1.293573
v 0.777884 -0.077263 1.164185
v 0.990059 -0.077263 0.990058
v 1.164186 -0.077263 0.777883
v 1.293574 -0.077263 0.535815
v 1.373250 -0.077263 0.273155
v 1.400154 -0.077263 -0.000001
v 1.373250 -0.077263 -0.273158
v 1.293573 -0.077263 -0.535817
v 1.164184 -0.077263 -0.777885
v 0.990057 -0.077263 -0.990059
v 0.777882 -0.077263 -1.164186
v 0.535814 -0.077263 -1.293574
v 0.273154 -0.077263 -1.373250
v -0.000000 -0.000001 -1.296021
v -0.252841 -0.000001 -1.271119
v -0.495966 -0.000001 -1.197368
v -0.720031 -0.000001 -1.077603
v -0.916426 -0.000001 -0.916426
v -1.077602 -0.000001 -0.720031
v -1.197368 -0.000001 -0.495966
v -1.271119 -0.000001 -0.252841
v -1.296021 -0.000001 -0.000000
v -1.271119 -0.000001 0.252841
v -1.197368 -0.000001 0.495966
v -1.077602 -0.000001 0.720031
v -0.916426 -0.000001 0.916425
v -0.720031 -0.000001 1.077602
v -0.495966 -0.000001 1.197368
v -0.252841 -0.000001 1.271119
v 0.000000 -0.000001 1.296021
v 0.252842 -0.000001 1.271119
v 0.495966 -0.000001 1.197367
v 0.720032 -0.000001 1.077602
v 0.916426 -0.000001 0.916425
v 1.077603 -0.000001 0.720030
v 1.197368 -0.000001 0.495965
v 1.271119 -0.000001 0.252840
v 1.296021 -0.000001 -0.000001
v 1.271118 -0.000001 -0.252843
v 1.197367 -0.000001 -0.495967
v 1.077602 -0.000001 -0.720032
v 0.916424 -0.000001 -0.916427
v 0.720029 -0.000001 -1.077603
v 0.495964 -0.000001 -1.197368
v 0.252839 -0.000001 -1.271119
vn 0.995200 0.000000 0.098000
vn -0.290300 0.000000 -0.956900
vn -0.634400 0.000000 0.773000
vn 0.881900 0.000000 0.471400
vn -0.881900 0.000000 0.471400
vn 0.290300 0.000000 -0.956900
vn 0.634400 0.000000 0.773000
vn -0.995200 0.000000 0.098000
vn 0.634400 0.000000 -0.773000
vn 0.290300 0.000000 0.956900
vn -0.956900 0.000000 -0.290300
vn 0.881900 0.000000 -0.471400
vn -0.773000 0.000000 -0.634400
vn -0.098000 0.000000 0.995200
vn 0.995200 0.000000 -0.098000
vn -0.471400 0.000000 -0.881900
vn -0.471400 0.000000 0.881900
vn 0.956900 0.000000 0.290300
vn -0.098000 0.000000 -0.995200
vn -0.773000 0.000000 0.634400
vn 0.098000 0.000000 -0.995200
vn 0.773000 0.000000 0.634400
vn -0.956900 0.000000 0.290300
vn 0.471400 0.000000 -0.881900
vn 0.471400 0.000000 0.881900
vn -0.995200 0.000000 -0.098000
vn 0.773000 0.000000 -0.634400
vn 0.098000 0.000000 0.995200
vn -0.881900 0.000000 -0.471400
vn 0.956900 0.000000 -0.290300
vn -0.634400 0.000000 -0.773000
vn -0.290300 0.000000 0.956900
vn 0.000000 -1.000000 0.000000
vn 0.462000 0.801700 -0.379200
vn 0.000000 1.000000 0.000000
vn 0.058600 0.801700 0.594800
vn -0.527100 0.801700 -0.281800
vn 0.572000 0.801700 -0.173500
vn -0.379200 0.801700 -0.462000
vn -0.173500 0.801700 0.572000
vn 0.594800 0.801700 0.058600
vn -0.173500 0.801700 -0.572000
vn -0.379200 0.801700 0.462000
vn 0.527100 0.801700 0.281800
vn -0.527100 0.801700 0.281800
vn 0.173500 0.801700 -0.572000
vn 0.379200 0.801700 0.462000
vn -0.594800 0.801700 0.058600
vn 0.379200 0.801700 -0.462000
vn 0.173500 0.801700 0.572000
vn -0.572000 0.801700 -0.173500
vn 0.527100 0.801700 -0.281800
vn -0.462000 0.801700 -0.379200
vn -0.058600 0.801700 0.594800
vn 0.594800 0.801700 -0.058600
vn -0.281800 0.801700 -0.527100
vn -0.281800 0.801700 0.527100
vn 0.572000 0.801700 0.173500
vn -0.058600 0.801700 -0.594800
vn -0.462000 0.801700 0.379200
vn 0.058600 0.801700 -0.594800
vn 0.462000 0.801700 0.379200
vn -0.572000 0.801700 0.173500
vn 0.281800 0.801700 -0.527100
vn 0.281800 0.801700 0.527100
vn -0.594800 0.801700 -0.058600
usemtl Material.008
s off
f 56//1 57//1 25//1
f 34//2 35//2 3//2
f 45//3 46//3 14//3
f 54//4 55//4 23//4
f 43//5 44//5 12//5
f 63//6 64//6 32//6
f 52//7 53//7 21//7
f 41//8 42//8 10//8
f 61//9 62//9 30//9
f 50//10 51//10 19//10
f 39//11 40//11 8//11
f 59//12 60//12 28//12
f 37//13 38//13 6//13
f 48//14 49//14 17//14
f 57//15 58//15 26//15
f 35//16 36//16 4//16
f 46//17 47//17 15//17
f 55//18 56//18 24//18
f 33//19 34//19 2//19
f 44//20 45//20 13//20
f 64//21 33//21 1//21
f 53//22 54//22 22//22
f 42//23 43//23 11//23
f 62//24 63//24 31//24
f 51//25 52//25 20//25
f 40//26 41//26 9//26
f 60//27 61//27 29//27
f 49//28 50//28 18//28
f 38//29 39//29 7//29
f 58//30 59//30 27//30
f 36//31 37//31 5//31
f 47//32 48//32 16//32
f 34//33 58//33 50//33
f 91//23 123//23 122//23
f 124//34 125//34 157//34
f 69//7 101//7 100//7
f 80//6 112//6 111//6
f 89//26 121//26 120//26
f 67//10 99//10 98//10
f 78//9 110//9 109//9
f 87//29 119//29 118//29
f 76//12 108//12 107//12
f 96//32 128//32 127//32
f 85//31 117//31 116//31
f 74//15 106//15 105//15
f 94//3 126//3 125//3
f 83//2 115//2 114//2
f 72//18 104//18 103//18
f 92//5 124//5 123//5
f 70//22 102//22 101//22
f 81//21 113//21 112//21
f 90//8 122//8 121//8
f 68//25 100//25 99//25
f 79//24 111//24 110//24
f 88//11 120//11 119//11
f 66//28 98//28 97//28
f 77//27 109//27 108//27
f 65//14 97//14 128//14
f 86//13 118//13 117//13
f 75//30 107//30 106//30
f 95//17 127//17 126//17
f 84//16 116//16 115//16
f 73//1 105//1 104//1
f 93//20 125//20 124//20
f 82//19 114//19 113//19
f 71//4 103//4 102//4
f 142//35 157//35 160//35
f 114//36 146//36 145//36
f 103//37 135//37 134//37
f 122//38 123//38 155//38
f 101//39 133//39 132//39
f 112//40 144//40 143//40
f 120//41 121//41 153//41
f 99//42 131//42 130//42
f 110//43 142//43 141//43
f 118//44 119//44 151//44
f 108//45 140//45 139//45
f 127//46 128//46 160//46
f 116//47 117//47 149//47
f 106//48 138//48 137//48
f 126//49 158//49 157//49
f 114//50 115//50 147//50
f 103//51 104//51 136//51
f 123//52 124//52 156//52
f 102//53 134//53 133//53
f 112//54 113//54 145//54
f 121//55 122//55 154//55
f 100//56 132//56 131//56
f 111//57 143//57 142//57
f 120//58 152//58 151//58
f 98//59 130//59 129//59
f 109//60 141//60 140//60
f 97//61 129//61 160//61
f 118//62 150//62 149//62
f 106//63 107//63 139//63
f 127//64 159//64 158//64
f 116//65 148//65 147//65
f 105//66 137//66 136//66
f 24//1 56//1 25//1
f 2//2 34//2 3//2
f 13//3 45//3 14//3
f 22//4 54//4 23//4
f 11//5 43//5 12//5
f 31//6 63//6 32//6
f 20//7 52//7 21//7
f 9//8 41//8 10//8
f 29//9 61//9 30//9
f 18//10 50//10 19//10
f 7//11 39//11 8//11
f 27//12 59//12 28//12
f 5//13 37//13 6//13
f 16//14 48//14 17//14
f 25//15 57//15 26//15
f 3//16 35//16 4//16
f 14//17 46//17 15//17
f 23//18 55//18 24//18
f 1//19 33//19 2//19
f 12//20 44//20 13//20
f 32//21 64//21 1//21
f 21//22 53//22 22//22
f 10//23 42//23 11//23
f 30//24 62//24 31//24
f 19//25 51//25 20//25
f 8//26 40//26 9//26
f 28//27 60//27 29//27
f 17//28 49//28 18//28
f 6//29 38//29 7//29
f 26//30 58//30 27//30
f 4//31 36//31 5//31
f 15//32 47//32 16//32
f 35//33 34//33 50//33
f 35//33 42//33 40//33
f 38//33 37//33 39//33
f 42//33 41//33 40//33
f 58//33 34//33 64//33
f 43//33 42//33 50//33
f 46//33 45//33 47//33
f 50//33 49//33 48//33
f 51//33 54//33 53//33
f 52//33 51//33 53//33
f 56//33 55//33 54//33
f 58//33 57//33 56//33
f 60//33 59//33 58//33
f 62//33 61//33 60//33
f 64//33 63//33 62//33
f 34//33 33//33 64//33
f 45//33 48//33 47//33
f 37//33 36//33 35//33
f 45//33 43//33 50//33
f 51//33 50//33 58//33
f 58//33 56//33 54//33
f 62//33 60//33 58//33
f 62//33 58//33 64//33
f 37//33 40//33 39//33
f 45//33 44//33 43//33
f 54//33 51//33 58//33
f 37//33 35//33 40//33
f 42//33 35//33 50//33
f 90//23 91//23 122//23
f 45//33 50//33 48//33
f 156//34 124//34 157//34
f 68//7 69//7 100//7
f 79//6 80//6 111//6
f 88//26 89//26 120//26
f 66//10 67//10 98//10
f 77//9 78//9 109//9
f 86//29 87//29 118//29
f 75//12 76//12 107//12
f 95//32 96//32 127//32
f 84//31 85//31 116//31
f 73//15 74//15 105//15
f 93//3 94//3 125//3
f 82//2 83//2 114//2
f 71//18 72//18 103//18
f 91//5 92//5 123//5
f 69//22 70//22 101//22
f 80//21 81//21 112//21
f 89//8 90//8 121//8
f 67//25 68//25 99//25
f 78//24 79//24 110//24
f 87//11 88//11 119//11
f 65//28 66//28 97//28
f 76//27 77//27 108//27
f 96//14 65//14 128//14
f 85//13 86//13 117//13
f 74//30 75//30 106//30
f 94//17 95//17 126//17
f 83//16 84//16 115//16
f 72//1 73//1 104//1
f 92//20 93//20 124//20
f 81//19 82//19 113//19
f 70//4 71//4 102//4
f 160//35 129//35 130//35
f 160//35 157//35 159//35
f 102//37 103//37 134//37
f 156//35 157//35 155//35
f 152//35 153//35 154//35
f 147//35 144//35 145//35
f 130//35 134//35 136//35
f 149//35 150//35 151//35
f 146//35 147//35 145//35
f 142//35 143//35 144//35
f 140//35 141//35 142//35
f 138//35 139//35 140//35
f 136//35 137//35 138//35
f 134//35 135//35 136//35
f 134//35 131//35 133//35
f 157//35 154//35 155//35
f 130//35 142//35 160//35
f 157//35 147//35 154//35
f 147//35 149//35 154//35
f 149//35 152//35 154//35
f 157//35 158//35 159//35
f 142//35 130//35 140//35
f 138//35 130//35 136//35
f 131//35 132//35 133//35
f 130//35 138//35 140//35
f 147//35 148//35 149//35
f 144//35 147//35 157//35
f 134//35 130//35 131//35
f 142//35 144//35 157//35
f 113//36 114//36 145//36
f 149//35 151//35 152//35
f 154//38 122//38 155//38
f 100//39 101//39 132//39
f 111//40 112//40 143//40
f 152//41 120//41 153//41
f 98//42 99//42 130//42
f 109//43 110//43 141//43
f 150//44 118//44 151//44
f 107//45 108//45 139//45
f 159//46 127//46 160//46
f 148//47 116//47 149//47
f 105//48 106//48 137//48
f 125//49 126//49 157//49
f 146//50 114//50 147//50
f 135//51 103//51 136//51
f 155//52 123//52 156//52
f 101//53 102//53 133//53
f 144//54 112//54 145//54
f 153//55 121//55 154//55
f 99//56 100//56 131//56
f 110//57 111//57 142//57
f 119//58 120//58 151//58
f 97//59 98//59 129//59
f 108//60 109//60 140//60
f 128//61 97//61 160//61
f 117//62 118//62 149//62
f 138//63 106//63 139//63
f 126//64 127//64 158//64
f 115//65 116//65 147//65
f 104//66 105//66 136//66
usemtl Material.006
f 23//35 24//35 88//35
f 2//35 66//35 65//35
f 12//35 13//35 77//35
f 32//35 1//35 65//35
f 22//35 86//35 85//35
f 11//35 75//35 74//35
f 30//35 31//35 95//35
f 20//35 84//35 83//35
f 9//35 73//35 72//35
f 29//35 93//35 92//35
f 18//35 82//35 81//35
f 7//35 71//35 70//35
f 26//35 27//35 91//35
f 5//35 69//35 68//35
f 15//35 16//35 80//35
f 24//35 25//35 89//35
f 3//35 67//35 66//35
f 14//35 78//35 77//35
f 23//35 87//35 86//35
f 12//35 76//35 75//35
f 31//35 32//35 96//35
f 21//35 85//35 84//35
f 10//35 74//35 73//35
f 30//35 94//35 93//35
f 19//35 83//35 82//35
f 8//35 72//35 71//35
f 27//35 28//35 92//35
f 6//35 70//35 69//35
f 17//35 81//35 80//35
f 25//35 26//35 90//35
f 4//35 68//35 67//35
f 15//35 79//35 78//35
f 87//35 23//35 88//35
f 1//35 2//35 65//35
f 76//35 12//35 77//35
f 96//35 32//35 65//35
f 21//35 22//35 85//35
f 10//35 11//35 74//35
f 94//35 30//35 95//35
f 19//35 20//35 83//35
f 8//35 9//35 72//35
f 28//35 29//35 92//35
f 17//35 18//35 81//35
f 6//35 7//35 70//35
f 90//35 26//35 91//35
f 4//35 5//35 68//35
f 79//35 15//35 80//35
f 88//35 24//35 89//35
f 2//35 3//35 66//35
f 13//35 14//35 77//35
f 22//35 23//35 86//35
f 11//35 12//35 75//35
f 95//35 31//35 96//35
f 20//35 21//35 84//35
f 9//35 10//35 73//35
f 29//35 30//35 93//35
f 18//35 19//35 82//35
f 7//35 8//35 71//35
f 91//35 27//35 92//35
f 5//35 6//35 69//35
f 16//35 17//35 80//35
f 89//35 25//35 90//35
f 3//35 4//35 67//35
f 14//35 15//35 78//35
