# Blender v2.72 (sub 0) OBJ File: 'fydp_lighting.blend'
# www.blender.org
mtllib pillar.mtl
o Circle.015
v 0.000000 0.000000 -1.500000
v -0.292636 0.000000 -1.471178
v -0.574025 0.000000 -1.385819
v -0.833355 0.000000 -1.247204
v -1.060660 0.000000 -1.060660
v -1.247205 0.000000 -0.833355
v -1.385819 0.000000 -0.574025
v -1.471178 0.000000 -0.292636
v -1.500000 0.000000 -0.000000
v -1.471178 0.000000 0.292635
v -1.385819 0.000000 0.574025
v -1.247205 0.000000 0.833355
v -1.060660 0.000000 1.060660
v -0.833355 0.000000 1.247205
v -0.574025 0.000000 1.385819
v -0.292635 0.000000 1.471178
v 0.000000 0.000000 1.500000
v 0.292636 0.000000 1.471178
v 0.574026 0.000000 1.385819
v 0.833356 0.000000 1.247204
v 1.060661 0.000000 1.060660
v 1.247205 0.000000 0.833354
v 1.385820 0.000000 0.574024
v 1.471178 0.000000 0.292634
v 1.500000 0.000000 -0.000001
v 1.471178 0.000000 -0.292637
v 1.385819 0.000000 -0.574027
v 1.247203 0.000000 -0.833357
v 1.060659 0.000000 -1.060662
v 0.833354 0.000000 -1.247205
v 0.574023 0.000000 -1.385820
v 0.292633 0.000000 -1.471178
v 0.000000 -10.000000 -1.500000
v -0.292636 -10.000000 -1.471178
v -0.574025 -10.000000 -1.385819
v -0.833355 -10.000000 -1.247204
v -1.060660 -10.000000 -1.060660
v -1.247205 -10.000000 -0.833355
v -1.385819 -10.000000 -0.574025
v -1.471178 -10.000000 -0.292636
v -1.500000 -10.000000 -0.000000
v -1.471178 -10.000000 0.292635
v -1.385819 -10.000000 0.574025
v -1.247205 -10.000000 0.833355
v -1.060660 -10.000000 1.060660
v -0.833355 -10.000000 1.247205
v -0.574025 -10.000000 1.385819
v -0.292635 -10.000000 1.471178
v 0.000000 -10.000000 1.500000
v 0.292636 -10.000000 1.471178
v 0.574026 -10.000000 1.385819
v 0.833356 -10.000000 1.247204
v 1.060661 -10.000000 1.060660
v 1.247205 -10.000000 0.833354
v 1.385820 -10.000000 0.574024
v 1.471178 -10.000000 0.292634
v 1.500000 -10.000000 -0.000001
v 1.471178 -10.000000 -0.292637
v 1.385819 -10.000000 -0.574027
v 1.247203 -10.000000 -0.833357
v 1.060659 -10.000000 -1.060662
v 0.833354 -10.000000 -1.247205
v 0.574023 -10.000000 -1.385820
v 0.292633 -10.000000 -1.471178
vn -0.995200 0.000000 -0.098000
vn 0.290300 0.000000 0.956900
vn 0.634400 0.000000 -0.773000
vn -0.881900 0.000000 -0.471400
vn 0.881900 0.000000 -0.471400
vn -0.290300 0.000000 0.956900
vn -0.634400 0.000000 -0.773000
vn 0.995200 0.000000 -0.098000
vn -0.634400 0.000000 0.773000
vn -0.290300 0.000000 -0.956900
vn 0.956900 0.000000 0.290300
vn -0.881900 0.000000 0.471400
vn 0.773000 0.000000 0.634400
vn 0.098000 0.000000 -0.995200
vn -0.995200 0.000000 0.098000
vn 0.471400 0.000000 0.881900
vn 0.471400 0.000000 -0.881900
vn -0.956900 0.000000 -0.290300
vn 0.098000 0.000000 0.995200
vn 0.773000 0.000000 -0.634400
vn -0.098000 0.000000 0.995200
vn -0.773000 0.000000 -0.634400
vn 0.956900 0.000000 -0.290300
vn -0.471400 0.000000 0.881900
vn -0.471400 0.000000 -0.881900
vn 0.995200 0.000000 0.098000
vn -0.773000 0.000000 0.634400
vn -0.098000 0.000000 -0.995200
vn 0.881900 0.000000 0.471400
vn -0.956900 0.000000 0.290300
vn 0.634400 0.000000 0.773000
vn 0.290300 0.000000 -0.956900
vn 0.000000 -1.000000 0.000000
vn 0.000000 1.000000 0.000000
usemtl Material.008
s off
f 25//1 57//1 56//1
f 3//2 35//2 34//2
f 14//3 46//3 45//3
f 23//4 55//4 54//4
f 12//5 44//5 43//5
f 32//6 64//6 63//6
f 21//7 53//7 52//7
f 10//8 42//8 41//8
f 30//9 62//9 61//9
f 19//10 51//10 50//10
f 8//11 40//11 39//11
f 28//12 60//12 59//12
f 6//13 38//13 37//13
f 17//14 49//14 48//14
f 26//15 58//15 57//15
f 4//16 36//16 35//16
f 15//17 47//17 46//17
f 24//18 56//18 55//18
f 2//19 34//19 33//19
f 13//20 45//20 44//20
f 1//21 33//21 64//21
f 22//22 54//22 53//22
f 11//23 43//23 42//23
f 31//24 63//24 62//24
f 20//25 52//25 51//25
f 9//26 41//26 40//26
f 29//27 61//27 60//27
f 18//28 50//28 49//28
f 7//29 39//29 38//29
f 27//30 59//30 58//30
f 5//31 37//31 36//31
f 16//32 48//32 47//32
f 2//33 26//33 18//33
f 50//34 58//34 34//34
f 24//1 25//1 56//1
f 2//2 3//2 34//2
f 13//3 14//3 45//3
f 22//4 23//4 54//4
f 11//5 12//5 43//5
f 31//6 32//6 63//6
f 20//7 21//7 52//7
f 9//8 10//8 41//8
f 29//9 30//9 61//9
f 18//10 19//10 50//10
f 7//11 8//11 39//11
f 27//12 28//12 59//12
f 5//13 6//13 37//13
f 16//14 17//14 48//14
f 25//15 26//15 57//15
f 3//16 4//16 35//16
f 14//17 15//17 46//17
f 23//18 24//18 55//18
f 1//19 2//19 33//19
f 12//20 13//20 44//20
f 32//21 1//21 64//21
f 21//22 22//22 53//22
f 10//23 11//23 42//23
f 30//24 31//24 62//24
f 19//25 20//25 51//25
f 8//26 9//26 40//26
f 28//27 29//27 60//27
f 17//28 18//28 49//28
f 6//29 7//29 38//29
f 26//30 27//30 58//30
f 4//31 5//31 36//31
f 15//32 16//32 47//32
f 3//33 2//33 18//33
f 3//33 10//33 8//33
f 6//33 5//33 7//33
f 10//33 9//33 8//33
f 26//33 2//33 32//33
f 11//33 10//33 18//33
f 14//33 13//33 15//33
f 18//33 17//33 16//33
f 19//33 22//33 21//33
f 20//33 19//33 21//33
f 24//33 23//33 22//33
f 26//33 25//33 24//33
f 28//33 27//33 26//33
f 30//33 29//33 28//33
f 32//33 31//33 30//33
f 2//33 1//33 32//33
f 13//33 16//33 15//33
f 5//33 4//33 3//33
f 13//33 11//33 18//33
f 62//34 63//34 64//34
f 19//33 18//33 26//33
f 26//33 24//33 22//33
f 30//33 28//33 26//33
f 30//33 26//33 32//33
f 5//33 8//33 7//33
f 13//33 12//33 11//33
f 22//33 19//33 26//33
f 5//33 3//33 8//33
f 10//33 3//33 18//33
f 64//34 33//34 34//34
f 13//33 18//33 16//33
f 60//34 61//34 62//34
f 58//34 59//34 60//34
f 56//34 57//34 58//34
f 54//34 55//34 56//34
f 53//34 56//34 50//34
f 45//34 46//34 47//34
f 48//34 49//34 50//34
f 48//34 45//34 47//34
f 37//34 38//34 39//34
f 44//34 45//34 43//34
f 40//34 41//34 42//34
f 51//34 53//34 50//34
f 53//34 54//34 56//34
f 36//34 37//34 35//34
f 62//34 64//34 34//34
f 58//34 60//34 62//34
f 58//34 50//34 56//34
f 51//34 52//34 53//34
f 45//34 48//34 43//34
f 42//34 43//34 40//34
f 39//34 40//34 34//34
f 58//34 62//34 34//34
f 43//34 34//34 40//34
f 48//34 50//34 34//34
f 43//34 48//34 34//34
f 37//34 34//34 35//34
f 37//34 39//34 34//34
