# Blender v2.72 (sub 0) OBJ File: 'fydp_lighting.blend'
# www.blender.org
mtllib table.mtl
o Cube.022_Cube.019
v 0.186182 0.987983 -0.186689
v 0.186182 0.987983 -0.224360
v 0.223854 0.987983 -0.224360
v 0.223854 0.987983 -0.186689
v 0.186182 1.035810 -0.186689
v 0.186182 1.035810 -0.224360
v 0.223854 1.035810 -0.224360
v 0.223854 1.035810 -0.186689
v 0.193201 0.987983 -0.193707
v 0.193201 0.987983 -0.217341
v 0.216835 0.987983 -0.217341
v 0.216835 0.987983 -0.193707
v 0.193201 -0.166474 -0.193707
v 0.193201 -0.166474 -0.217341
v 0.216835 -0.166474 -0.217341
v 0.216835 -0.166474 -0.193707
v 0.190990 -0.166474 -0.191497
v 0.190990 -0.166474 -0.219552
v 0.219046 -0.166474 -0.219552
v 0.219046 -0.166474 -0.191497
v 0.187044 -0.214958 -0.187550
v 0.187044 -0.214958 -0.223499
v 0.222992 -0.214958 -0.223499
v 0.222992 -0.214958 -0.187550
v 0.186689 0.987983 0.186182
v 0.224360 0.987983 0.186182
v 0.224360 0.987983 0.223854
v 0.186689 0.987983 0.223854
v 0.186689 1.035810 0.186182
v 0.224360 1.035810 0.186182
v 0.224360 1.035810 0.223854
v 0.186689 1.035810 0.223854
v 0.193707 0.987983 0.193201
v 0.217341 0.987983 0.193201
v 0.217341 0.987983 0.216835
v 0.193707 0.987983 0.216835
v 0.193707 -0.166474 0.193201
v 0.217341 -0.166474 0.193201
v 0.217341 -0.166474 0.216835
v 0.193707 -0.166474 0.216835
v 0.191497 -0.166474 0.190990
v 0.219552 -0.166474 0.190990
v 0.219552 -0.166474 0.219046
v 0.191497 -0.166474 0.219046
v 0.187550 -0.214958 0.187044
v 0.223499 -0.214958 0.187044
v 0.223499 -0.214958 0.222992
v 0.187550 -0.214958 0.222992
v -0.186182 0.987983 0.186689
v 0.246844 1.094378 0.246844
v 0.246844 1.094378 -0.246844
v -0.246844 1.094378 -0.246844
v -0.246844 1.094378 0.246844
v -0.186182 0.987983 0.224360
v -0.223854 0.987983 0.224360
v -0.223854 0.987983 0.186689
v -0.186182 1.035810 0.186689
v -0.186182 1.035810 0.224360
v -0.223854 1.035810 0.224360
v -0.223854 1.035810 0.186689
v -0.193201 0.987983 0.193707
v -0.193201 0.987983 0.217341
v -0.216835 0.987983 0.217341
v -0.216835 0.987983 0.193707
v -0.193201 -0.166474 0.193707
v -0.193201 -0.166474 0.217341
v -0.216835 -0.166474 0.217341
v -0.216835 -0.166474 0.193707
v -0.190990 -0.166474 0.191497
v -0.190990 -0.166474 0.219552
v -0.219046 -0.166474 0.219552
v -0.219046 -0.166474 0.191497
v -0.187044 -0.214957 0.187550
v -0.187044 -0.214957 0.223499
v -0.222992 -0.214957 0.223499
v -0.222992 -0.214957 0.187550
v -0.186688 0.987983 -0.186182
v 0.246844 1.032866 0.246844
v 0.246844 1.032866 -0.246844
v -0.246844 1.032866 -0.246844
v -0.246844 1.032866 0.246844
v -0.224360 0.987983 -0.186182
v -0.224360 0.987983 -0.223854
v -0.186688 0.987983 -0.223854
v -0.186688 1.035810 -0.186182
v -0.224360 1.035810 -0.186182
v -0.224360 1.035810 -0.223854
v -0.186688 1.035810 -0.223854
v -0.193707 0.987983 -0.193201
v -0.217341 0.987983 -0.193201
v -0.217341 0.987983 -0.216835
v -0.193707 0.987983 -0.216835
v -0.193707 -0.166474 -0.193201
v -0.217341 -0.166474 -0.193201
v -0.217341 -0.166474 -0.216835
v -0.193707 -0.166474 -0.216835
v -0.191496 -0.166474 -0.190990
v -0.219552 -0.166474 -0.190990
v -0.219552 -0.166474 -0.219046
v -0.191496 -0.166474 -0.219046
v -0.187550 -0.214957 -0.187044
v -0.223499 -0.214957 -0.187044
v -0.223499 -0.214957 -0.222992
v -0.187550 -0.214957 -0.222992
v 0.187044 -0.263746 -0.187550
v 0.187044 -0.263746 -0.223499
v 0.222992 -0.263746 -0.223499
v 0.222992 -0.263746 -0.187550
v 0.187550 -0.263746 0.187044
v 0.223499 -0.263746 0.187044
v 0.223499 -0.263746 0.222992
v 0.187550 -0.263746 0.222992
v -0.187044 -0.263746 0.187550
v -0.187044 -0.263746 0.223499
v -0.222992 -0.263746 0.223499
v -0.222992 -0.263746 0.187550
v -0.187550 -0.263746 -0.187044
v -0.223499 -0.263746 -0.187044
v -0.223499 -0.263746 -0.222992
v -0.187550 -0.263746 -0.222992
vn 1.000000 0.000000 0.000000
vn 0.000000 0.000000 1.000000
vn -1.000000 0.000000 0.000000
vn 0.000000 0.000000 -1.000000
vn 0.000000 1.000000 0.000000
vn 0.000000 -1.000000 0.000000
vn 0.000000 -0.081100 -0.996700
vn -0.996700 -0.081100 0.000000
vn 0.000000 -0.081100 0.996700
vn 0.996700 -0.081100 0.000000
vn 0.996700 0.081100 0.000000
vn 0.000000 0.081100 -0.996700
vn -0.996700 0.081100 0.000000
vn 0.000000 0.081100 0.996700
usemtl Material.009
s off
f 1//1 2//1 6//1
f 2//2 3//2 7//2
f 3//3 4//3 8//3
f 4//4 1//4 5//4
f 4//5 12//5 9//5
f 5//6 6//6 7//6
f 16//4 13//4 9//4
f 11//5 12//5 4//5
f 10//5 11//5 3//5
f 9//5 10//5 2//5
f 20//6 17//6 13//6
f 15//3 16//3 12//3
f 14//2 15//2 11//2
f 13//1 14//1 10//1
f 20//7 24//7 21//7
f 19//6 20//6 16//6
f 18//6 19//6 15//6
f 13//6 17//6 18//6
f 101//1 117//1 120//1
f 23//8 24//8 20//8
f 22//9 23//9 19//9
f 21//10 22//10 18//10
f 25//2 26//2 30//2
f 26//3 27//3 31//3
f 27//4 28//4 32//4
f 28//1 25//1 29//1
f 36//5 33//5 25//5
f 29//6 30//6 31//6
f 40//1 37//1 33//1
f 27//5 35//5 36//5
f 26//5 34//5 35//5
f 33//5 34//5 26//5
f 40//6 44//6 41//6
f 39//4 40//4 36//4
f 38//3 39//3 35//3
f 37//2 38//2 34//2
f 48//10 45//10 41//10
f 43//6 44//6 40//6
f 42//6 43//6 39//6
f 37//6 41//6 42//6
f 76//2 116//2 113//2
f 47//7 48//7 44//7
f 42//8 46//8 47//8
f 45//9 46//9 42//9
f 49//3 54//3 58//3
f 54//4 55//4 59//4
f 55//1 56//1 60//1
f 56//2 49//2 57//2
f 64//5 61//5 49//5
f 57//6 58//6 59//6
f 68//2 65//2 61//2
f 63//5 64//5 56//5
f 54//5 62//5 63//5
f 49//5 61//5 62//5
f 72//6 69//6 65//6
f 67//1 68//1 64//1
f 66//4 67//4 63//4
f 65//3 66//3 62//3
f 76//9 73//9 69//9
f 71//6 72//6 68//6
f 70//6 71//6 67//6
f 65//6 69//6 70//6
f 48//1 112//1 109//1
f 75//10 76//10 72//10
f 74//7 75//7 71//7
f 73//8 74//8 70//8
f 86//2 82//2 77//2
f 87//3 83//3 82//3
f 88//4 84//4 83//4
f 85//1 77//1 84//1
f 77//6 89//6 92//6
f 87//5 86//5 85//5
f 89//1 93//1 96//1
f 84//6 92//6 91//6
f 82//6 83//6 91//6
f 82//6 90//6 89//6
f 93//5 97//5 100//5
f 92//4 96//4 95//4
f 91//3 95//3 94//3
f 90//2 94//2 93//2
f 100//11 97//11 101//11
f 96//5 100//5 99//5
f 95//5 99//5 98//5
f 94//5 98//5 97//5
f 24//4 108//4 105//4
f 99//12 100//12 104//12
f 99//13 103//13 102//13
f 98//14 102//14 101//14
f 51//4 79//4 80//4
f 52//3 80//3 81//3
f 51//5 52//5 53//5
f 80//6 79//6 78//6
f 50//1 78//1 79//1
f 53//2 81//2 78//2
f 108//5 107//5 106//5
f 112//5 111//5 110//5
f 116//5 115//5 114//5
f 118//6 119//6 120//6
f 22//2 106//2 107//2
f 46//3 110//3 111//3
f 74//4 114//4 115//4
f 103//3 119//3 118//3
f 23//3 107//3 108//3
f 47//4 111//4 112//4
f 75//1 115//1 116//1
f 104//4 120//4 119//4
f 21//1 105//1 106//1
f 45//2 109//2 110//2
f 73//3 113//3 114//3
f 102//2 118//2 117//2
f 5//1 1//1 6//1
f 6//2 2//2 7//2
f 7//3 3//3 8//3
f 8//4 4//4 5//4
f 1//5 4//5 9//5
f 8//6 5//6 7//6
f 12//4 16//4 9//4
f 3//5 11//5 4//5
f 2//5 10//5 3//5
f 1//5 9//5 2//5
f 16//6 20//6 13//6
f 11//3 15//3 12//3
f 10//2 14//2 11//2
f 9//1 13//1 10//1
f 17//7 20//7 21//7
f 15//6 19//6 16//6
f 14//6 18//6 15//6
f 14//6 13//6 18//6
f 104//1 101//1 120//1
f 19//8 23//8 20//8
f 18//9 22//9 19//9
f 17//10 21//10 18//10
f 29//2 25//2 30//2
f 30//3 26//3 31//3
f 31//4 27//4 32//4
f 32//1 28//1 29//1
f 28//5 36//5 25//5
f 32//6 29//6 31//6
f 36//1 40//1 33//1
f 28//5 27//5 36//5
f 27//5 26//5 35//5
f 25//5 33//5 26//5
f 37//6 40//6 41//6
f 35//4 39//4 36//4
f 34//3 38//3 35//3
f 33//2 37//2 34//2
f 44//10 48//10 41//10
f 39//6 43//6 40//6
f 38//6 42//6 39//6
f 38//6 37//6 42//6
f 73//2 76//2 113//2
f 43//7 47//7 44//7
f 43//8 42//8 47//8
f 41//9 45//9 42//9
f 57//3 49//3 58//3
f 58//4 54//4 59//4
f 59//1 55//1 60//1
f 60//2 56//2 57//2
f 56//5 64//5 49//5
f 60//6 57//6 59//6
f 64//2 68//2 61//2
f 55//5 63//5 56//5
f 55//5 54//5 63//5
f 54//5 49//5 62//5
f 68//6 72//6 65//6
f 63//1 67//1 64//1
f 62//4 66//4 63//4
f 61//3 65//3 62//3
f 72//9 76//9 69//9
f 67//6 71//6 68//6
f 66//6 70//6 67//6
f 66//6 65//6 70//6
f 45//1 48//1 109//1
f 71//10 75//10 72//10
f 70//7 74//7 71//7
f 69//8 73//8 70//8
f 85//2 86//2 77//2
f 86//3 87//3 82//3
f 87//4 88//4 83//4
f 88//1 85//1 84//1
f 84//6 77//6 92//6
f 88//5 87//5 85//5
f 92//1 89//1 96//1
f 83//6 84//6 91//6
f 90//6 82//6 91//6
f 77//6 82//6 89//6
f 96//5 93//5 100//5
f 91//4 92//4 95//4
f 90//3 91//3 94//3
f 89//2 90//2 93//2
f 104//11 100//11 101//11
f 95//5 96//5 99//5
f 94//5 95//5 98//5
f 93//5 94//5 97//5
f 21//4 24//4 105//4
f 103//12 99//12 104//12
f 98//13 99//13 102//13
f 97//14 98//14 101//14
f 52//4 51//4 80//4
f 53//3 52//3 81//3
f 50//5 51//5 53//5
f 81//6 80//6 78//6
f 51//1 50//1 79//1
f 50//2 53//2 78//2
f 105//5 108//5 106//5
f 109//5 112//5 110//5
f 113//5 116//5 114//5
f 117//6 118//6 120//6
f 23//2 22//2 107//2
f 47//3 46//3 111//3
f 75//4 74//4 115//4
f 102//3 103//3 118//3
f 24//3 23//3 108//3
f 48//4 47//4 112//4
f 76//1 75//1 116//1
f 103//4 104//4 119//4
f 22//1 21//1 106//1
f 46//2 45//2 110//2
f 74//3 73//3 114//3
f 101//2 102//2 117//2
