# Blender v2.72 (sub 0) OBJ File: 'fydp_lighting.blend'
# www.blender.org
mtllib tree.mtl
o Circle.001_Circle.002
v -0.969326 1.074459 -2.937146
v -1.354354 1.074459 -2.714850
v -1.354354 1.074459 -2.270258
v -0.969326 1.074459 -2.047962
v -0.584298 1.074459 -2.270258
v -0.584298 1.074459 -2.714850
v -0.969326 1.074459 -2.937146
v -1.354354 1.074459 -2.714850
v -1.354354 1.074459 -2.270258
v -0.969326 1.074459 -2.047962
v -0.584298 1.074459 -2.270258
v -0.584298 1.074459 -2.714850
v -0.969326 -0.356723 -3.020416
v -1.426468 -0.356723 -2.756485
v -1.426468 -0.356723 -2.228623
v -0.969326 -0.356723 -1.964692
v -0.512184 -0.356723 -2.228623
v -0.512184 -0.356723 -2.756485
v -0.969326 0.087449 -2.987900
v -0.540344 0.087449 -2.740227
v -0.540344 0.087449 -2.244881
v -0.969326 0.087449 -1.997208
v -1.398308 0.087449 -2.244881
v -1.398308 0.087449 -2.740227
v -1.429301 -0.356723 -3.482669
v -1.596804 -0.356723 -3.385961
v -1.596804 -0.356723 -1.599147
v -1.429301 -0.356723 -1.502439
v 0.118126 -0.356723 -2.395846
v 0.118126 -0.356723 -2.589262
v -1.402583 -0.222745 -3.413936
v 0.045243 -0.222745 -2.578033
v 0.045243 -0.222745 -2.407074
v -1.402583 -0.222745 -1.571171
v -1.550638 -0.222745 -1.656651
v -1.550638 -0.222745 -3.328457
v -0.969326 0.978411 -4.188490
v -2.438050 0.978411 -3.340522
v -2.438050 0.978411 -1.644586
v -0.969326 0.978411 -0.796618
v 0.499398 0.978411 -1.644586
v 0.499398 0.978411 -3.340522
v -0.969326 5.997028 -2.492554
v -0.153822 1.823303 -2.963386
v 0.232357 1.890887 -3.186346
v -0.316923 2.735779 -2.869219
v -0.034684 2.803363 -3.032170
v -0.480023 3.648255 -2.775053
v -0.301725 3.715839 -2.877994
v -0.643124 4.560731 -2.680887
v -0.568765 4.628315 -2.723818
v -0.806225 5.473207 -2.586720
v -0.835806 5.540791 -2.569642
v -0.153822 1.823303 -2.021722
v 0.232357 1.890887 -1.798762
v -0.316923 2.735779 -2.115889
v -0.034684 2.803363 -1.952938
v -0.480023 3.648255 -2.210055
v -0.301725 3.715839 -2.107114
v -0.643124 4.560731 -2.304221
v -0.568765 4.628315 -2.261290
v -0.806225 5.473207 -2.398388
v -0.835806 5.540791 -2.415466
v -0.969326 1.823303 -1.550891
v -0.969326 1.890887 -1.104970
v -0.969326 2.735779 -1.739223
v -0.969326 2.803363 -1.413322
v -0.969326 3.648255 -1.927556
v -0.969326 3.715839 -1.721674
v -0.969326 4.560731 -2.115889
v -0.969326 4.628315 -2.030026
v -0.969326 5.473207 -2.304221
v -0.969326 5.540791 -2.338378
v -1.784830 1.823303 -2.963386
v -2.171009 1.890887 -3.186346
v -1.621730 2.735779 -2.869219
v -1.903968 2.803363 -3.032170
v -1.458629 3.648255 -2.775053
v -1.636928 3.715839 -2.877994
v -1.295528 4.560731 -2.680887
v -1.369887 4.628315 -2.723818
v -1.132427 5.473207 -2.586720
v -1.102847 5.540791 -2.569642
v -0.969326 5.540791 -2.646730
v -0.969326 5.473207 -2.680887
v -0.969326 4.628315 -2.955082
v -0.969326 4.560731 -2.869219
v -0.969326 3.715840 -3.263434
v -0.969326 3.648256 -3.057552
v -0.969326 2.803364 -3.571786
v -0.969326 2.735780 -3.245885
v -0.969326 1.890887 -3.880138
v -0.969326 1.823303 -3.434217
v -1.784830 1.823303 -2.021722
v -2.171009 1.890887 -1.798762
v -1.621730 2.735779 -2.115889
v -1.903968 2.803363 -1.952938
v -1.458629 3.648255 -2.210055
v -1.636928 3.715839 -2.107114
v -1.295528 4.560731 -2.304221
v -1.369887 4.628315 -2.261290
v -1.132427 5.473207 -2.398388
v -1.102847 5.540791 -2.415466
vn 0.000000 0.000000 1.000000
vn 0.499000 0.063300 -0.864300
vn 0.000000 -1.000000 0.000000
vn 0.468100 0.883700 0.000000
vn 0.499000 0.063300 0.864300
vn -0.234000 0.883700 0.405400
vn -0.998000 0.063300 0.000000
vn -0.234000 0.883700 -0.405400
vn 0.499500 0.044500 -0.865200
vn 0.999000 0.044500 0.000000
vn 0.499500 0.044500 0.865200
vn -0.499500 0.044500 0.865200
vn -0.999000 0.044500 0.000000
vn -0.499500 0.044500 -0.865200
vn 0.878400 0.477900 0.000000
vn -0.439200 0.477900 0.760700
vn -0.439200 0.477900 -0.760700
vn 0.707900 0.051600 -0.704400
vn -0.953000 0.287500 0.095200
vn -0.964000 0.051600 -0.260900
vn 0.558900 0.287500 0.777800
vn 0.256100 0.051600 0.965300
vn 0.394100 0.287500 -0.872900
vn 0.558900 0.287500 -0.777800
vn -0.964000 0.051600 0.260900
vn -0.953000 0.287500 -0.095200
vn 0.707900 0.051600 0.704400
vn 0.394100 0.287500 0.872900
vn 0.256100 0.051600 -0.965300
vn 0.479900 0.280900 -0.831200
vn 0.479900 0.280900 0.831200
vn -0.479900 0.280900 0.831200
vn -0.479900 0.280900 -0.831200
vn -0.959700 0.280900 0.000000
vn 0.959700 0.280900 0.000000
vn 0.395600 0.611700 -0.685100
vn 0.086200 -0.985000 -0.149300
vn 0.419200 0.545100 -0.726100
vn 0.116400 -0.972500 -0.201700
vn 0.442300 0.466300 -0.766100
vn 0.177200 -0.935100 -0.307000
vn 0.463600 0.374600 -0.803000
vn 0.336300 -0.740000 -0.582500
vn 0.481300 0.270600 -0.833700
vn 0.458100 0.401000 -0.793400
vn 0.395600 0.611700 0.685100
vn 0.086200 -0.985000 0.149300
vn 0.419200 0.545100 0.726100
vn 0.116400 -0.972500 0.201700
vn 0.442300 0.466300 0.766100
vn 0.177200 -0.935100 0.307000
vn 0.463600 0.374600 0.803000
vn 0.336300 -0.740000 0.582500
vn 0.481300 0.270600 0.833700
vn 0.458000 0.401000 0.793400
vn -0.395600 0.611700 0.685100
vn -0.086200 -0.985000 0.149300
vn -0.419200 0.545100 0.726100
vn -0.116400 -0.972500 0.201700
vn -0.442300 0.466300 0.766100
vn -0.177200 -0.935100 0.307000
vn -0.463600 0.374600 0.803000
vn -0.336300 -0.740000 0.582500
vn -0.481300 0.270600 0.833700
vn -0.458000 0.401000 0.793400
vn -0.395600 0.611700 -0.685100
vn -0.086200 -0.985000 -0.149300
vn -0.419200 0.545100 -0.726100
vn -0.116400 -0.972500 -0.201700
vn -0.442300 0.466300 -0.766100
vn -0.177200 -0.935100 -0.307000
vn -0.463600 0.374600 -0.803000
vn -0.336300 -0.740000 -0.582500
vn -0.481300 0.270600 -0.833700
vn -0.458000 0.401000 -0.793400
vn -0.791100 0.611700 0.000000
vn -0.172400 -0.985000 0.000000
vn -0.838400 0.545100 0.000000
vn -0.232900 -0.972500 0.000000
vn -0.884600 0.466300 0.000000
vn -0.354400 -0.935100 0.000000
vn -0.927200 0.374600 0.000000
vn -0.672600 -0.740000 0.000000
vn -0.962700 0.270600 0.000000
vn -0.916100 0.401000 0.000000
vn 0.791100 0.611700 0.000000
vn 0.172400 -0.985000 0.000000
vn 0.838400 0.545100 0.000000
vn 0.232900 -0.972500 0.000000
vn 0.884600 0.466300 0.000000
vn 0.354400 -0.935100 0.000000
vn 0.927200 0.374600 0.000000
vn 0.672600 -0.740000 0.000000
vn 0.962700 0.270600 0.000000
vn 0.916100 0.401000 0.000000
vn 0.481400 0.270600 -0.833700
vn 0.458000 0.401000 -0.793400
vn 0.481400 0.270600 0.833700
vn -0.481400 0.270600 -0.833700
usemtl Material
s off
f 6//1 12//1 7//1
f 5//1 11//1 12//1
f 4//1 10//1 11//1
f 3//1 9//1 10//1
f 2//1 8//1 9//1
f 1//1 7//1 8//1
f 20//2 18//2 13//2
f 18//3 17//3 16//3
f 21//4 33//4 32//4
f 22//5 16//5 17//5
f 23//6 35//6 34//6
f 24//7 14//7 15//7
f 19//8 31//8 36//8
f 12//9 20//9 19//9
f 11//10 21//10 20//10
f 10//11 22//11 21//11
f 9//12 23//12 22//12
f 8//13 24//13 23//13
f 7//14 19//14 24//14
f 33//15 29//15 30//15
f 35//16 27//16 28//16
f 36//17 31//17 25//17
f 19//18 13//18 25//18
f 24//19 36//19 26//19
f 23//20 15//20 27//20
f 22//21 34//21 28//21
f 21//22 17//22 29//22
f 20//23 32//23 30//23
f 18//3 30//3 29//3
f 16//3 28//3 27//3
f 14//3 26//3 25//3
f 1//1 6//1 7//1
f 6//1 5//1 12//1
f 5//1 4//1 11//1
f 4//1 3//1 10//1
f 3//1 2//1 9//1
f 2//1 1//1 8//1
f 19//2 20//2 13//2
f 16//3 15//3 14//3
f 20//4 21//4 32//4
f 18//3 16//3 13//3
f 21//5 22//5 17//5
f 16//3 14//3 13//3
f 22//6 23//6 34//6
f 23//7 24//7 15//7
f 24//8 19//8 36//8
f 7//9 12//9 19//9
f 12//10 11//10 20//10
f 11//11 10//11 21//11
f 10//12 9//12 22//12
f 9//13 8//13 23//13
f 8//14 7//14 24//14
f 32//15 33//15 30//15
f 34//16 35//16 28//16
f 26//17 36//17 25//17
f 31//24 19//24 25//24
f 14//25 24//25 26//25
f 35//26 23//26 27//26
f 16//27 22//27 28//27
f 33//28 21//28 29//28
f 18//29 20//29 30//29
f 17//3 18//3 29//3
f 15//3 16//3 27//3
f 13//3 14//3 25//3
usemtl Material.003
f 38//3 37//3 42//3
f 84//30 43//30 53//30
f 63//31 43//31 73//31
f 73//32 43//32 103//32
f 83//33 43//33 84//33
f 103//34 43//34 83//34
f 53//35 43//35 63//35
f 37//36 93//36 44//36
f 93//37 92//37 45//37
f 91//38 46//38 45//38
f 90//39 47//39 46//39
f 89//40 48//40 47//40
f 88//41 49//41 48//41
f 87//42 50//42 49//42
f 87//43 86//43 51//43
f 86//44 85//44 52//44
f 85//45 84//45 53//45
f 54//46 64//46 40//46
f 54//47 55//47 65//47
f 56//48 66//48 65//48
f 57//49 67//49 66//49
f 58//50 68//50 67//50
f 58//51 59//51 69//51
f 60//52 70//52 69//52
f 60//53 61//53 71//53
f 62//54 72//54 71//54
f 63//55 73//55 72//55
f 40//56 64//56 94//56
f 65//57 95//57 94//57
f 66//58 96//58 95//58
f 67//59 97//59 96//59
f 68//60 98//60 97//60
f 69//61 99//61 98//61
f 69//62 70//62 100//62
f 71//63 101//63 100//63
f 72//64 102//64 101//64
f 72//65 73//65 103//65
f 74//66 93//66 37//66
f 75//67 92//67 93//67
f 75//68 76//68 91//68
f 77//69 90//69 91//69
f 77//70 78//70 89//70
f 79//71 88//71 89//71
f 79//72 80//72 87//72
f 80//73 81//73 86//73
f 81//74 82//74 85//74
f 83//75 84//75 85//75
f 94//76 74//76 38//76
f 95//77 75//77 74//77
f 96//78 76//78 75//78
f 97//79 77//79 76//79
f 98//80 78//80 77//80
f 99//81 79//81 78//81
f 99//82 100//82 80//82
f 101//83 81//83 80//83
f 101//84 102//84 82//84
f 103//85 83//85 82//85
f 44//86 54//86 41//86
f 45//87 55//87 54//87
f 46//88 56//88 55//88
f 47//89 57//89 56//89
f 48//90 58//90 57//90
f 49//91 59//91 58//91
f 50//92 60//92 59//92
f 51//93 61//93 60//93
f 52//94 62//94 61//94
f 53//95 63//95 62//95
f 40//3 39//3 38//3
f 42//3 41//3 40//3
f 42//36 37//36 44//36
f 38//3 42//3 40//3
f 44//37 93//37 45//37
f 92//38 91//38 45//38
f 91//39 90//39 46//39
f 90//40 89//40 47//40
f 89//41 88//41 48//41
f 88//42 87//42 49//42
f 50//43 87//43 51//43
f 51//96 86//96 52//96
f 52//97 85//97 53//97
f 41//46 54//46 40//46
f 64//47 54//47 65//47
f 55//48 56//48 65//48
f 56//49 57//49 66//49
f 57//50 58//50 67//50
f 68//51 58//51 69//51
f 59//52 60//52 69//52
f 70//53 60//53 71//53
f 61//98 62//98 71//98
f 62//55 63//55 72//55
f 39//56 40//56 94//56
f 64//57 65//57 94//57
f 65//58 66//58 95//58
f 66//59 67//59 96//59
f 67//60 68//60 97//60
f 68//61 69//61 98//61
f 99//62 69//62 100//62
f 70//63 71//63 100//63
f 71//64 72//64 101//64
f 102//65 72//65 103//65
f 38//66 74//66 37//66
f 74//67 75//67 93//67
f 92//68 75//68 91//68
f 76//69 77//69 91//69
f 90//70 77//70 89//70
f 78//71 79//71 89//71
f 88//72 79//72 87//72
f 87//73 80//73 86//73
f 86//99 81//99 85//99
f 82//75 83//75 85//75
f 39//76 94//76 38//76
f 94//77 95//77 74//77
f 95//78 96//78 75//78
f 96//79 97//79 76//79
f 97//80 98//80 77//80
f 98//81 99//81 78//81
f 79//82 99//82 80//82
f 100//83 101//83 80//83
f 81//84 101//84 82//84
f 102//85 103//85 82//85
f 42//86 44//86 41//86
f 44//87 45//87 54//87
f 45//88 46//88 55//88
f 46//89 47//89 56//89
f 47//90 48//90 57//90
f 48//91 49//91 58//91
f 49//92 50//92 59//92
f 50//93 51//93 60//93
f 51//94 52//94 61//94
f 52//95 53//95 62//95
