# Blender v2.72 (sub 0) OBJ File: 'fydp_lighting.blend'
# www.blender.org
mtllib tree.mtl
o Circle.014_Circle.001
v 0.000000 1.431182 -0.444592
v -0.385028 1.431182 -0.222296
v -0.385028 1.431182 0.222296
v 0.000000 1.431182 0.444592
v 0.385028 1.431182 0.222296
v 0.385028 1.431182 -0.222296
v 0.000000 1.431182 -0.444592
v -0.385028 1.431182 -0.222296
v -0.385028 1.431182 0.222296
v 0.000000 1.431182 0.444592
v 0.385028 1.431182 0.222296
v 0.385028 1.431182 -0.222296
v 0.000000 0.000000 -0.527862
v -0.457142 0.000000 -0.263931
v -0.457142 0.000000 0.263931
v 0.000000 0.000000 0.527862
v 0.457142 0.000000 0.263931
v 0.457142 0.000000 -0.263931
v 0.000000 0.444171 -0.495346
v 0.428982 0.444171 -0.247673
v 0.428982 0.444171 0.247673
v 0.000000 0.444171 0.495346
v -0.428982 0.444171 0.247673
v -0.428982 0.444171 -0.247673
v -0.459975 0.000000 -0.990115
v -0.627478 0.000000 -0.893407
v -0.627478 0.000000 0.893407
v -0.459975 0.000000 0.990115
v 1.087452 0.000000 0.096708
v 1.087452 0.000000 -0.096708
v -0.433257 0.133978 -0.921382
v 1.014569 0.133978 -0.085480
v 1.014569 0.133978 0.085480
v -0.433257 0.133978 0.921383
v -0.581312 0.133978 0.835903
v -0.581312 0.133978 -0.835903
v -0.000000 1.335134 -1.695936
v -1.468724 1.335134 -0.847968
v -1.468724 1.335134 0.847968
v 0.000000 1.335134 1.695936
v 1.468724 1.335134 0.847968
v 1.468724 1.335134 -0.847968
v -0.000000 6.353751 0.000000
v 0.815504 2.180026 -0.470832
v 1.201683 2.247610 -0.693792
v 0.652403 3.092502 -0.376665
v 0.934642 3.160086 -0.539616
v 0.489303 4.004978 -0.282499
v 0.667601 4.072562 -0.385440
v 0.326202 4.917454 -0.188333
v 0.400561 4.985037 -0.231264
v 0.163101 5.829929 -0.094166
v 0.133520 5.897513 -0.077088
v 0.815504 2.180026 0.470832
v 1.201683 2.247610 0.693792
v 0.652403 3.092502 0.376665
v 0.934642 3.160086 0.539616
v 0.489303 4.004978 0.282499
v 0.667601 4.072562 0.385440
v 0.326202 4.917454 0.188333
v 0.400561 4.985037 0.231264
v 0.163101 5.829929 0.094166
v 0.133520 5.897513 0.077088
v 0.000000 2.180026 0.941663
v 0.000000 2.247610 1.387584
v -0.000000 3.092502 0.753331
v -0.000000 3.160086 1.079232
v -0.000000 4.004978 0.564998
v -0.000000 4.072562 0.770880
v -0.000000 4.917454 0.376665
v -0.000000 4.985037 0.462528
v -0.000000 5.829929 0.188333
v -0.000000 5.897513 0.154176
v -0.815504 2.180026 -0.470832
v -1.201683 2.247610 -0.693792
v -0.652404 3.092502 -0.376665
v -0.934642 3.160086 -0.539616
v -0.489303 4.004978 -0.282499
v -0.667602 4.072562 -0.385440
v -0.326202 4.917454 -0.188333
v -0.400561 4.985037 -0.231264
v -0.163101 5.829929 -0.094166
v -0.133521 5.897513 -0.077088
v -0.000000 5.897513 -0.154176
v -0.000000 5.829929 -0.188333
v -0.000000 4.985038 -0.462528
v -0.000000 4.917454 -0.376665
v -0.000000 4.072562 -0.770880
v -0.000000 4.004978 -0.564998
v -0.000000 3.160086 -1.079232
v -0.000000 3.092502 -0.753331
v -0.000000 2.247610 -1.387584
v -0.000000 2.180026 -0.941663
v -0.815504 2.180026 0.470832
v -1.201683 2.247610 0.693792
v -0.652404 3.092502 0.376665
v -0.934642 3.160086 0.539616
v -0.489303 4.004978 0.282499
v -0.667602 4.072562 0.385440
v -0.326202 4.917454 0.188333
v -0.400561 4.985037 0.231264
v -0.163101 5.829929 0.094166
v -0.133521 5.897513 0.077088
v 0.000000 -0.796139 -0.684469
v -0.592767 -0.796139 -0.342234
v -0.592767 -0.796139 0.342234
v 0.000000 -0.796139 0.684469
v 0.592767 -0.796139 0.342234
v 0.592767 -0.796139 -0.342234
v -0.596440 -0.796139 -1.283863
v -0.813638 -0.796139 -1.158464
v -0.813638 -0.796139 1.158464
v -0.596440 -0.796139 1.283864
v 1.410079 -0.796139 0.125399
v 1.410079 -0.796139 -0.125399
vn 0.000000 0.000000 1.000000
vn 0.499000 0.063300 -0.864300
vn -0.956100 0.137400 -0.258700
vn 0.468100 0.883700 0.000000
vn 0.499000 0.063300 0.864300
vn -0.234000 0.883700 0.405400
vn -0.998000 0.063300 0.000000
vn -0.234000 0.883700 -0.405400
vn 0.499500 0.044500 -0.865200
vn 0.999000 0.044500 0.000000
vn 0.499500 0.044500 0.865200
vn -0.499500 0.044500 0.865200
vn -0.999000 0.044500 0.000000
vn -0.499500 0.044500 -0.865200
vn 0.878400 0.477900 0.000000
vn -0.439200 0.477900 0.760700
vn -0.439200 0.477900 -0.760700
vn 0.707900 0.051600 -0.704400
vn -0.953000 0.287500 0.095200
vn -0.964000 0.051600 -0.260900
vn 0.558900 0.287500 0.777800
vn 0.256100 0.051600 0.965300
vn 0.394100 0.287500 -0.872900
vn 0.702100 0.137400 0.698700
vn 0.254000 0.137400 0.957400
vn 0.254000 0.137400 -0.957400
vn 0.000000 -1.000000 0.000000
vn -0.956100 0.137400 0.258700
vn 0.702100 0.137400 -0.698700
vn 0.926800 0.375600 0.000000
vn -0.463400 0.375600 0.802600
vn -0.463400 0.375600 -0.802600
vn 0.492900 0.167900 -0.853700
vn 0.492900 0.167900 0.853700
vn -0.985800 0.167900 0.000000
vn 0.558900 0.287500 -0.777800
vn -0.964000 0.051600 0.260900
vn -0.953000 0.287500 -0.095200
vn 0.707900 0.051600 0.704400
vn 0.394100 0.287500 0.872900
vn 0.256100 0.051600 -0.965300
vn 0.479900 0.280900 -0.831200
vn 0.479900 0.280900 0.831200
vn -0.479900 0.280900 0.831200
vn -0.479900 0.280900 -0.831200
vn -0.959700 0.280900 0.000000
vn 0.959700 0.280900 0.000000
vn 0.395600 0.611700 -0.685100
vn 0.086200 -0.985000 -0.149300
vn 0.419200 0.545100 -0.726100
vn 0.116400 -0.972500 -0.201700
vn 0.442300 0.466300 -0.766100
vn 0.177200 -0.935100 -0.307000
vn 0.463600 0.374600 -0.803000
vn 0.336300 -0.740000 -0.582500
vn 0.481300 0.270600 -0.833700
vn 0.458000 0.401000 -0.793400
vn 0.395600 0.611700 0.685100
vn 0.086200 -0.985000 0.149300
vn 0.419200 0.545100 0.726100
vn 0.116400 -0.972500 0.201700
vn 0.442300 0.466300 0.766100
vn 0.177200 -0.935100 0.307000
vn 0.463600 0.374600 0.803000
vn 0.336300 -0.740000 0.582500
vn 0.481400 0.270600 0.833700
vn 0.458000 0.401000 0.793400
vn -0.395600 0.611700 0.685100
vn -0.086200 -0.985000 0.149300
vn -0.419200 0.545100 0.726100
vn -0.116400 -0.972500 0.201700
vn -0.442300 0.466300 0.766100
vn -0.177200 -0.935100 0.307000
vn -0.463600 0.374600 0.803000
vn -0.336300 -0.740000 0.582500
vn -0.481300 0.270600 0.833700
vn -0.458100 0.401000 0.793400
vn -0.395600 0.611700 -0.685100
vn -0.086200 -0.985000 -0.149300
vn -0.419200 0.545100 -0.726100
vn -0.116400 -0.972500 -0.201700
vn -0.442300 0.466300 -0.766100
vn -0.177200 -0.935100 -0.307000
vn -0.463600 0.374600 -0.803000
vn -0.336300 -0.740000 -0.582500
vn -0.481300 0.270600 -0.833700
vn -0.458000 0.401000 -0.793400
vn -0.791100 0.611700 0.000000
vn -0.172400 -0.985000 -0.000000
vn -0.838400 0.545100 0.000000
vn -0.232900 -0.972500 0.000000
vn -0.884600 0.466300 0.000000
vn -0.354400 -0.935100 0.000000
vn -0.927200 0.374600 0.000000
vn -0.672600 -0.740000 0.000000
vn -0.962700 0.270600 0.000000
vn -0.916100 0.401000 0.000000
vn 0.791100 0.611700 0.000000
vn 0.172400 -0.985000 0.000000
vn 0.838400 0.545100 0.000000
vn 0.232900 -0.972500 0.000000
vn 0.884600 0.466300 0.000000
vn 0.354400 -0.935100 0.000000
vn 0.927200 0.374600 0.000000
vn 0.672600 -0.740000 0.000000
vn 0.962700 0.270600 0.000000
vn 0.916100 0.401000 0.000000
vn 0.481400 0.270600 -0.833700
vn 0.458100 0.401000 -0.793400
vn -0.481400 0.270600 0.833700
vn -0.458000 0.401000 0.793400
vn -0.481400 0.270600 -0.833700
usemtl Material
s off
f 6//1 12//1 7//1
f 5//1 11//1 12//1
f 4//1 10//1 11//1
f 3//1 9//1 10//1
f 2//1 8//1 9//1
f 1//1 7//1 8//1
f 20//2 18//2 13//2
f 15//3 106//3 112//3
f 21//4 33//4 32//4
f 22//5 16//5 17//5
f 23//6 35//6 34//6
f 24//7 14//7 15//7
f 19//8 31//8 36//8
f 12//9 20//9 19//9
f 11//10 21//10 20//10
f 10//11 22//11 21//11
f 9//12 23//12 22//12
f 8//13 24//13 23//13
f 7//14 19//14 24//14
f 33//15 29//15 30//15
f 34//16 35//16 27//16
f 36//17 31//17 25//17
f 19//18 13//18 25//18
f 24//19 36//19 26//19
f 23//20 15//20 27//20
f 22//21 34//21 28//21
f 21//22 17//22 29//22
f 20//23 32//23 30//23
f 16//24 28//24 113//24
f 17//25 108//25 114//25
f 18//26 30//26 115//26
f 105//27 104//27 109//27
f 109//27 115//27 114//27
f 107//27 113//27 112//27
f 105//27 111//27 110//27
f 14//28 26//28 111//28
f 13//29 104//29 110//29
f 30//30 29//30 114//30
f 28//31 27//31 112//31
f 25//32 110//32 111//32
f 18//33 109//33 104//33
f 16//34 107//34 108//34
f 14//35 105//35 106//35
f 1//1 6//1 7//1
f 6//1 5//1 12//1
f 5//1 4//1 11//1
f 4//1 3//1 10//1
f 3//1 2//1 9//1
f 2//1 1//1 8//1
f 19//2 20//2 13//2
f 27//3 15//3 112//3
f 20//4 21//4 32//4
f 21//5 22//5 17//5
f 22//6 23//6 34//6
f 23//7 24//7 15//7
f 24//8 19//8 36//8
f 7//9 12//9 19//9
f 12//10 11//10 20//10
f 11//11 10//11 21//11
f 10//12 9//12 22//12
f 9//13 8//13 23//13
f 8//14 7//14 24//14
f 32//15 33//15 30//15
f 28//16 34//16 27//16
f 26//17 36//17 25//17
f 31//36 19//36 25//36
f 14//37 24//37 26//37
f 35//38 23//38 27//38
f 16//39 22//39 28//39
f 33//40 21//40 29//40
f 18//41 20//41 30//41
f 107//24 16//24 113//24
f 29//25 17//25 114//25
f 109//26 18//26 115//26
f 107//27 106//27 105//27
f 109//27 108//27 107//27
f 108//27 109//27 114//27
f 105//27 109//27 107//27
f 106//27 107//27 112//27
f 104//27 105//27 110//27
f 105//28 14//28 111//28
f 25//29 13//29 110//29
f 115//30 30//30 114//30
f 113//31 28//31 112//31
f 26//32 25//32 111//32
f 13//33 18//33 104//33
f 17//34 16//34 108//34
f 15//35 14//35 106//35
usemtl Material.003
f 38//27 37//27 42//27
f 84//42 43//42 53//42
f 63//43 43//43 73//43
f 73//44 43//44 103//44
f 83//45 43//45 84//45
f 103//46 43//46 83//46
f 53//47 43//47 63//47
f 93//48 44//48 42//48
f 92//49 45//49 44//49
f 91//50 46//50 45//50
f 90//51 47//51 46//51
f 89//52 48//52 47//52
f 88//53 49//53 48//53
f 87//54 50//54 49//54
f 86//55 51//55 50//55
f 86//56 85//56 52//56
f 84//57 53//57 52//57
f 41//58 54//58 64//58
f 55//59 65//59 64//59
f 56//60 66//60 65//60
f 56//61 57//61 67//61
f 57//62 58//62 68//62
f 58//63 59//63 69//63
f 59//64 60//64 70//64
f 60//65 61//65 71//65
f 62//66 72//66 71//66
f 62//67 63//67 73//67
f 40//68 64//68 94//68
f 65//69 95//69 94//69
f 66//70 96//70 95//70
f 66//71 67//71 97//71
f 68//72 98//72 97//72
f 68//73 69//73 99//73
f 70//74 100//74 99//74
f 70//75 71//75 101//75
f 72//76 102//76 101//76
f 72//77 73//77 103//77
f 38//78 74//78 93//78
f 75//79 92//79 93//79
f 75//80 76//80 91//80
f 76//81 77//81 90//81
f 77//82 78//82 89//82
f 79//83 88//83 89//83
f 79//84 80//84 87//84
f 81//85 86//85 87//85
f 81//86 82//86 85//86
f 82//87 83//87 84//87
f 39//88 94//88 74//88
f 95//89 75//89 74//89
f 96//90 76//90 75//90
f 96//91 97//91 77//91
f 97//92 98//92 78//92
f 98//93 99//93 79//93
f 100//94 80//94 79//94
f 101//95 81//95 80//95
f 102//96 82//96 81//96
f 102//97 103//97 83//97
f 44//98 54//98 41//98
f 45//99 55//99 54//99
f 46//100 56//100 55//100
f 47//101 57//101 56//101
f 48//102 58//102 57//102
f 49//103 59//103 58//103
f 50//104 60//104 59//104
f 51//105 61//105 60//105
f 52//106 62//106 61//106
f 53//107 63//107 62//107
f 38//27 42//27 39//27
f 42//27 41//27 40//27
f 37//48 93//48 42//48
f 93//49 92//49 44//49
f 42//27 40//27 39//27
f 92//50 91//50 45//50
f 91//51 90//51 46//51
f 90//52 89//52 47//52
f 89//53 88//53 48//53
f 88//54 87//54 49//54
f 87//55 86//55 50//55
f 51//108 86//108 52//108
f 85//109 84//109 52//109
f 40//58 41//58 64//58
f 54//59 55//59 64//59
f 55//60 56//60 65//60
f 66//61 56//61 67//61
f 67//62 57//62 68//62
f 68//63 58//63 69//63
f 69//64 59//64 70//64
f 70//65 60//65 71//65
f 61//66 62//66 71//66
f 72//67 62//67 73//67
f 39//68 40//68 94//68
f 64//69 65//69 94//69
f 65//70 66//70 95//70
f 96//71 66//71 97//71
f 67//72 68//72 97//72
f 98//73 68//73 99//73
f 69//74 70//74 99//74
f 100//75 70//75 101//75
f 71//110 72//110 101//110
f 102//111 72//111 103//111
f 37//78 38//78 93//78
f 74//79 75//79 93//79
f 92//80 75//80 91//80
f 91//81 76//81 90//81
f 90//82 77//82 89//82
f 78//83 79//83 89//83
f 88//84 79//84 87//84
f 80//85 81//85 87//85
f 86//112 81//112 85//112
f 85//87 82//87 84//87
f 38//88 39//88 74//88
f 94//89 95//89 74//89
f 95//90 96//90 75//90
f 76//91 96//91 77//91
f 77//92 97//92 78//92
f 78//93 98//93 79//93
f 99//94 100//94 79//94
f 100//95 101//95 80//95
f 101//96 102//96 81//96
f 82//97 102//97 83//97
f 42//98 44//98 41//98
f 44//99 45//99 54//99
f 45//100 46//100 55//100
f 46//101 47//101 56//101
f 47//102 48//102 57//102
f 48//103 49//103 58//103
f 49//104 50//104 59//104
f 50//105 51//105 60//105
f 51//106 52//106 61//106
f 52//107 53//107 62//107
